<?xml version="1.0" standalone="no"?>
<svg xmlns:xlink="http://www.w3.org/1999/xlink" id="wave" style="transform:rotate(180deg); transition: 0.3s" viewBox="0 0 1440 100" version="1.1" xmlns="http://www.w3.org/2000/svg"><defs><linearGradient id="sw-gradient-0" x1="0" x2="0" y1="1" y2="0"><stop stop-color="rgba(242, 242, 242, 1)" offset="0%"/><stop stop-color="rgba(242, 242, 242, 1)" offset="100%"/></linearGradient></defs><path style="transform:translate(0, 0px); opacity:1" fill="url(#sw-gradient-0)" d="M0,20L48,25C96,30,192,40,288,50C384,60,480,70,576,73.3C672,77,768,73,864,66.7C960,60,1056,50,1152,50C1248,50,1344,60,1440,61.7C1536,63,1632,57,1728,45C1824,33,1920,17,2016,20C2112,23,2208,47,2304,56.7C2400,67,2496,63,2592,60C2688,57,2784,53,2880,43.3C2976,33,3072,17,3168,16.7C3264,17,3360,33,3456,43.3C3552,53,3648,57,3744,55C3840,53,3936,47,4032,41.7C4128,37,4224,33,4320,28.3C4416,23,4512,17,4608,13.3C4704,10,4800,10,4896,15C4992,20,5088,30,5184,43.3C5280,57,5376,73,5472,78.3C5568,83,5664,77,5760,76.7C5856,77,5952,83,6048,73.3C6144,63,6240,37,6336,23.3C6432,10,6528,10,6624,23.3C6720,37,6816,63,6864,76.7L6912,90L6912,100L6864,100C6816,100,6720,100,6624,100C6528,100,6432,100,6336,100C6240,100,6144,100,6048,100C5952,100,5856,100,5760,100C5664,100,5568,100,5472,100C5376,100,5280,100,5184,100C5088,100,4992,100,4896,100C4800,100,4704,100,4608,100C4512,100,4416,100,4320,100C4224,100,4128,100,4032,100C3936,100,3840,100,3744,100C3648,100,3552,100,3456,100C3360,100,3264,100,3168,100C3072,100,2976,100,2880,100C2784,100,2688,100,2592,100C2496,100,2400,100,2304,100C2208,100,2112,100,2016,100C1920,100,1824,100,1728,100C1632,100,1536,100,1440,100C1344,100,1248,100,1152,100C1056,100,960,100,864,100C768,100,672,100,576,100C480,100,384,100,288,100C192,100,96,100,48,100L0,100Z"/></svg>