<?xml version="1.0" standalone="no"?>
<svg xmlns:xlink="http://www.w3.org/1999/xlink" id="wave" style="transform:rotate(180deg); transition: 0.3s" viewBox="0 0 1440 220" version="1.1" xmlns="http://www.w3.org/2000/svg"><defs><linearGradient id="sw-gradient-0" x1="0" x2="0" y1="1" y2="0"><stop stop-color="rgba(242, 242, 242, 1)" offset="0%"/><stop stop-color="rgba(242, 242, 242, 1)" offset="100%"/></linearGradient></defs><path style="transform:translate(0, 0px); opacity:1" fill="url(#sw-gradient-0)" d="M0,132L48,110C96,88,192,44,288,51.3C384,59,480,117,576,117.3C672,117,768,59,864,47.7C960,37,1056,73,1152,80.7C1248,88,1344,66,1440,69.7C1536,73,1632,103,1728,99C1824,95,1920,59,2016,44C2112,29,2208,37,2304,33C2400,29,2496,15,2592,40.3C2688,66,2784,132,2880,157.7C2976,183,3072,169,3168,143C3264,117,3360,81,3456,80.7C3552,81,3648,117,3744,128.3C3840,139,3936,125,4032,132C4128,139,4224,169,4320,157.7C4416,147,4512,95,4608,77C4704,59,4800,73,4896,88C4992,103,5088,117,5184,106.3C5280,95,5376,59,5472,69.7C5568,81,5664,139,5760,154C5856,169,5952,139,6048,132C6144,125,6240,139,6336,146.7C6432,154,6528,154,6624,128.3C6720,103,6816,51,6864,25.7L6912,0L6912,220L6864,220C6816,220,6720,220,6624,220C6528,220,6432,220,6336,220C6240,220,6144,220,6048,220C5952,220,5856,220,5760,220C5664,220,5568,220,5472,220C5376,220,5280,220,5184,220C5088,220,4992,220,4896,220C4800,220,4704,220,4608,220C4512,220,4416,220,4320,220C4224,220,4128,220,4032,220C3936,220,3840,220,3744,220C3648,220,3552,220,3456,220C3360,220,3264,220,3168,220C3072,220,2976,220,2880,220C2784,220,2688,220,2592,220C2496,220,2400,220,2304,220C2208,220,2112,220,2016,220C1920,220,1824,220,1728,220C1632,220,1536,220,1440,220C1344,220,1248,220,1152,220C1056,220,960,220,864,220C768,220,672,220,576,220C480,220,384,220,288,220C192,220,96,220,48,220L0,220Z"/></svg>